<?xml version="1.0" encoding="UTF-8" standalone="no"?>
<!-- Created with Inkscape (http://www.inkscape.org/) -->

<svg
   width="210mm"
   height="297mm"
   viewBox="0 0 210 297"
   version="1.1"
   id="svg5"
   sodipodi:docname="card_idea.svg"
   inkscape:version="1.2.2 (b0a84865, 2022-12-01)"
   xmlns:inkscape="http://www.inkscape.org/namespaces/inkscape"
   xmlns:sodipodi="http://sodipodi.sourceforge.net/DTD/sodipodi-0.dtd"
   xmlns="http://www.w3.org/2000/svg"
   xmlns:svg="http://www.w3.org/2000/svg">
  <sodipodi:namedview
     id="namedview7"
     pagecolor="#ffffff"
     bordercolor="#000000"
     borderopacity="0.25"
     inkscape:showpageshadow="2"
     inkscape:pageopacity="0.0"
     inkscape:pagecheckerboard="0"
     inkscape:deskcolor="#d1d1d1"
     inkscape:document-units="mm"
     showgrid="false"
     inkscape:zoom="1.3136745"
     inkscape:cx="134.35596"
     inkscape:cy="429.7107"
     inkscape:window-width="1328"
     inkscape:window-height="855"
     inkscape:window-x="40"
     inkscape:window-y="37"
     inkscape:window-maximized="0"
     inkscape:current-layer="layer1" />
  <defs
     id="defs2" />
  <g
     inkscape:label="Layer 1"
     inkscape:groupmode="layer"
     id="layer1">
    <rect
       style="fill:none;stroke:#000000;stroke-width:0.120437;stroke-dasharray:none;stroke-opacity:1"
       id="rect111"
       width="40.920013"
       height="49.123833"
       x="40.198845"
       y="65.36834"
       rx="4.0978665"
       ry="4.572" />
    <rect
       style="fill:#aa0000;stroke:#ff2e3d;stroke-width:0.4086;stroke-dasharray:none;stroke-opacity:1"
       id="rect111-2"
       width="23.946411"
       height="31.1432"
       x="48.952427"
       y="73.853134"
       rx="5.3701601"
       ry="6.3878889" />
    <text
       xml:space="preserve"
       style="font-size:18.9032px;fill:#ffffff;stroke:#000000;stroke-width:0.443929;stroke-dasharray:none;stroke-opacity:1"
       x="49.850079"
       y="99.530769"
       id="text1391"
       transform="scale(1.0425678,0.95917022)"><tspan
         id="tspan1389"
         style="font-style:normal;font-variant:normal;font-weight:normal;font-stretch:normal;font-size:18.9032px;font-family:Phosphate;-inkscape-font-specification:'Phosphate, Normal';font-variant-ligatures:normal;font-variant-caps:normal;font-variant-numeric:normal;font-variant-east-asian:normal;fill:#ffffff;stroke:none;stroke-width:0.443929"
         x="49.850079"
         y="99.530769"
         sodipodi:role="line">27</tspan></text>
    <text
       xml:space="preserve"
       style="font-size:7.30801px;fill:#800000;stroke:#000000;stroke-width:0.171624;stroke-dasharray:none;stroke-opacity:1"
       x="69.796951"
       y="75.062363"
       id="text1391-3"
       transform="scale(1.0425678,0.95917023)"><tspan
         id="tspan1389-2"
         style="font-style:normal;font-variant:normal;font-weight:normal;font-stretch:normal;font-size:7.30801px;font-family:Phosphate;-inkscape-font-specification:'Phosphate, Normal';font-variant-ligatures:normal;font-variant-caps:normal;font-variant-numeric:normal;font-variant-east-asian:normal;fill:#800000;stroke:none;stroke-width:0.171624"
         x="69.796951"
         y="75.062363"
         sodipodi:role="line">27</tspan></text>
    <text
       xml:space="preserve"
       style="font-size:7.30801px;fill:#800000;stroke:#000000;stroke-width:0.171624;stroke-dasharray:none;stroke-opacity:1"
       x="40.626217"
       y="116.91314"
       id="text1391-3-4"
       transform="scale(1.0425678,0.95917023)"><tspan
         id="tspan1389-2-8"
         style="font-style:normal;font-variant:normal;font-weight:normal;font-stretch:normal;font-size:7.30801px;font-family:Phosphate;-inkscape-font-specification:'Phosphate, Normal';font-variant-ligatures:normal;font-variant-caps:normal;font-variant-numeric:normal;font-variant-east-asian:normal;fill:#800000;stroke:none;stroke-width:0.171624"
         x="40.626217"
         y="116.91314"
         sodipodi:role="line">27</tspan></text>
    <path
       sodipodi:type="star"
       style="fill:#800000;stroke:#ff2e3d;stroke-width:0.529167;stroke-dasharray:none;stroke-opacity:1"
       id="path1656-4"
       inkscape:flatsided="true"
       sodipodi:sides="4"
       sodipodi:cx="22.154776"
       sodipodi:cy="76.9375"
       sodipodi:r1="4.6367383"
       sodipodi:r2="3.2786696"
       sodipodi:arg1="1.5273454"
       sodipodi:arg2="2.3127436"
       inkscape:rounded="0.02"
       inkscape:randomized="0"
       d="m 22.356183,81.569862 c -0.131023,0.0057 -4.828073,-4.299932 -4.833769,-4.430955 -0.0057,-0.131023 4.299931,-4.828072 4.430954,-4.833769 0.131023,-0.0057 4.828073,4.299932 4.83377,4.430955 0.0057,0.131023 -4.299932,4.828072 -4.430955,4.833769 z"
       transform="matrix(0.29963556,0,0,0.34311377,70.29914,83.569941)" />
    <path
       sodipodi:type="star"
       style="fill:#800000;stroke:#ff2e3d;stroke-width:0.529167;stroke-dasharray:none;stroke-opacity:1"
       id="path1656-4-9"
       inkscape:flatsided="true"
       sodipodi:sides="4"
       sodipodi:cx="22.154776"
       sodipodi:cy="76.9375"
       sodipodi:r1="4.6367383"
       sodipodi:r2="3.2786696"
       sodipodi:arg1="1.5273454"
       sodipodi:arg2="2.3127436"
       inkscape:rounded="0.02"
       inkscape:randomized="0"
       d="m 22.356183,81.569862 c -0.131023,0.0057 -4.828073,-4.299932 -4.833769,-4.430955 -0.0057,-0.131023 4.299931,-4.828072 4.430954,-4.833769 0.131023,-0.0057 4.828073,4.299932 4.83377,4.430955 0.0057,0.131023 -4.299932,4.828072 -4.430955,4.833769 z"
       transform="matrix(0.29963556,0,0,0.34311377,38.678231,44.496971)" />
    <rect
       style="fill:none;stroke:#000000;stroke-width:0.120437;stroke-dasharray:none;stroke-opacity:1"
       id="rect111-0"
       width="40.920013"
       height="49.123833"
       x="40.767738"
       y="120.45117"
       rx="4.0978665"
       ry="4.572" />
    <text
       xml:space="preserve"
       style="font-size:18.9032px;fill:#ffffff;stroke:#000000;stroke-width:0.443929;stroke-dasharray:none;stroke-opacity:1"
       x="50.395744"
       y="156.95834"
       id="text1391-34"
       transform="scale(1.0425678,0.95917023)"><tspan
         id="tspan1389-0"
         style="font-style:normal;font-variant:normal;font-weight:normal;font-stretch:normal;font-size:18.9032px;font-family:Phosphate;-inkscape-font-specification:'Phosphate, Normal';font-variant-ligatures:normal;font-variant-caps:normal;font-variant-numeric:normal;font-variant-east-asian:normal;fill:#ffffff;stroke:none;stroke-width:0.443929"
         x="50.395744"
         y="156.95834"
         sodipodi:role="line">27</tspan></text>
    <path
       sodipodi:type="star"
       style="fill:#800000;stroke:#ff2e3d;stroke-width:0.529167;stroke-dasharray:none;stroke-opacity:1"
       id="path1656-4-0"
       inkscape:flatsided="true"
       sodipodi:sides="4"
       sodipodi:cx="22.154776"
       sodipodi:cy="76.9375"
       sodipodi:r1="4.6367383"
       sodipodi:r2="3.2786696"
       sodipodi:arg1="1.5273454"
       sodipodi:arg2="2.3127436"
       inkscape:rounded="0.02"
       inkscape:randomized="0"
       d="m 22.356183,81.569862 c -0.131023,0.0057 -4.828073,-4.299932 -4.833769,-4.430955 -0.0057,-0.131023 4.299931,-4.828072 4.430954,-4.833769 0.131023,-0.0057 4.828073,4.299932 4.83377,4.430955 0.0057,0.131023 -4.299932,4.828072 -4.430955,4.833769 z"
       transform="matrix(0.29963556,0,0,0.34311377,70.868036,138.65278)" />
    <path
       sodipodi:type="star"
       style="fill:#800000;stroke:#ff2e3d;stroke-width:0.529167;stroke-dasharray:none;stroke-opacity:1"
       id="path1656-4-9-6"
       inkscape:flatsided="true"
       sodipodi:sides="4"
       sodipodi:cx="22.154776"
       sodipodi:cy="76.9375"
       sodipodi:r1="4.6367383"
       sodipodi:r2="3.2786696"
       sodipodi:arg1="1.5273454"
       sodipodi:arg2="2.3127436"
       inkscape:rounded="0.02"
       inkscape:randomized="0"
       d="m 22.356183,81.569862 c -0.131023,0.0057 -4.828073,-4.299932 -4.833769,-4.430955 -0.0057,-0.131023 4.299931,-4.828072 4.430954,-4.833769 0.131023,-0.0057 4.828073,4.299932 4.83377,4.430955 0.0057,0.131023 -4.299932,4.828072 -4.430955,4.833769 z"
       transform="matrix(1.1782924,0,0,1.583186,24.110934,10.213957)" />
    <path
       sodipodi:type="star"
       style="fill:#800000;stroke:#ff2e3d;stroke-width:0.529167;stroke-dasharray:none;stroke-opacity:1"
       id="path1656-4-9-6-6"
       inkscape:flatsided="true"
       sodipodi:sides="4"
       sodipodi:cx="22.154776"
       sodipodi:cy="76.9375"
       sodipodi:r1="4.6367383"
       sodipodi:r2="3.2786696"
       sodipodi:arg1="1.5273454"
       sodipodi:arg2="2.3127436"
       inkscape:rounded="0.02"
       inkscape:randomized="0"
       d="m 22.356183,81.569862 c -0.131023,0.0057 -4.828073,-4.299932 -4.833769,-4.430955 -0.0057,-0.131023 4.299931,-4.828072 4.430954,-4.833769 0.131023,-0.0057 4.828073,4.299932 4.83377,4.430955 0.0057,0.131023 -4.299932,4.828072 -4.430955,4.833769 z"
       transform="matrix(1.1782924,0,0,1.583186,35.727165,9.71244)" />
    <path
       sodipodi:type="star"
       style="fill:#800000;stroke:#ff2e3d;stroke-width:0.529167;stroke-dasharray:none;stroke-opacity:1"
       id="path1656-4-9-6-6-2"
       inkscape:flatsided="true"
       sodipodi:sides="4"
       sodipodi:cx="22.154776"
       sodipodi:cy="76.9375"
       sodipodi:r1="4.6367383"
       sodipodi:r2="3.2786696"
       sodipodi:arg1="1.5273454"
       sodipodi:arg2="2.3127436"
       inkscape:rounded="0.02"
       inkscape:randomized="0"
       d="m 22.356183,81.569862 c -0.131023,0.0057 -4.828073,-4.299932 -4.833769,-4.430955 -0.0057,-0.131023 4.299931,-4.828072 4.430954,-4.833769 0.131023,-0.0057 4.828073,4.299932 4.83377,4.430955 0.0057,0.131023 -4.299932,4.828072 -4.430955,4.833769 z"
       transform="matrix(1.1782924,0,0,1.583186,47.005961,8.9068122)" />
    <path
       sodipodi:type="star"
       style="fill:#800000;stroke:#ff2e3d;stroke-width:0.529167;stroke-dasharray:none;stroke-opacity:1"
       id="path1656-4-9-6-6-2-4"
       inkscape:flatsided="true"
       sodipodi:sides="4"
       sodipodi:cx="22.154776"
       sodipodi:cy="76.9375"
       sodipodi:r1="4.6367383"
       sodipodi:r2="3.2786696"
       sodipodi:arg1="1.5273454"
       sodipodi:arg2="2.3127436"
       inkscape:rounded="0.02"
       inkscape:randomized="0"
       d="m 22.356183,81.569862 c -0.131023,0.0057 -4.828073,-4.299932 -4.833769,-4.430955 -0.0057,-0.131023 4.299931,-4.828072 4.430954,-4.833769 0.131023,-0.0057 4.828073,4.299932 4.83377,4.430955 0.0057,0.131023 -4.299932,4.828072 -4.430955,4.833769 z"
       transform="matrix(1.1782924,0,0,1.583186,24.851184,25.623599)" />
    <path
       sodipodi:type="star"
       style="fill:#800000;stroke:#ff2e3d;stroke-width:0.529167;stroke-dasharray:none;stroke-opacity:1"
       id="path1656-4-9-6-6-2-4-7"
       inkscape:flatsided="true"
       sodipodi:sides="4"
       sodipodi:cx="22.154776"
       sodipodi:cy="76.9375"
       sodipodi:r1="4.6367383"
       sodipodi:r2="3.2786696"
       sodipodi:arg1="1.5273454"
       sodipodi:arg2="2.3127436"
       inkscape:rounded="0.02"
       inkscape:randomized="0"
       d="m 22.356183,81.569862 c -0.131023,0.0057 -4.828073,-4.299932 -4.833769,-4.430955 -0.0057,-0.131023 4.299931,-4.828072 4.430954,-4.833769 0.131023,-0.0057 4.828073,4.299932 4.83377,4.430955 0.0057,0.131023 -4.299932,4.828072 -4.430955,4.833769 z"
       transform="matrix(1.1782924,0,0,1.583186,13.370981,26.026412)" />
    <path
       sodipodi:type="star"
       style="fill:#800000;stroke:#ff2e3d;stroke-width:0.529167;stroke-dasharray:none;stroke-opacity:1"
       id="path1656-4-9-6-6-2-4-7-4"
       inkscape:flatsided="true"
       sodipodi:sides="4"
       sodipodi:cx="22.154776"
       sodipodi:cy="76.9375"
       sodipodi:r1="4.6367383"
       sodipodi:r2="3.2786696"
       sodipodi:arg1="1.5273454"
       sodipodi:arg2="2.3127436"
       inkscape:rounded="0.02"
       inkscape:randomized="0"
       d="m 22.356183,81.569862 c -0.131023,0.0057 -4.828073,-4.299932 -4.833769,-4.430955 -0.0057,-0.131023 4.299931,-4.828072 4.430954,-4.833769 0.131023,-0.0057 4.828073,4.299932 4.83377,4.430955 0.0057,0.131023 -4.299932,4.828072 -4.430955,4.833769 z"
       transform="matrix(1.1782924,0,0,1.583186,36.12998,25.422191)" />
    <path
       sodipodi:type="star"
       style="fill:#800000;stroke:#ff2e3d;stroke-width:0.529167;stroke-dasharray:none;stroke-opacity:1"
       id="path1656-4-9-6-6-2-4-7-4-1"
       inkscape:flatsided="true"
       sodipodi:sides="4"
       sodipodi:cx="22.154776"
       sodipodi:cy="76.9375"
       sodipodi:r1="4.6367383"
       sodipodi:r2="3.2786696"
       sodipodi:arg1="1.5273454"
       sodipodi:arg2="2.3127436"
       inkscape:rounded="0.02"
       inkscape:randomized="0"
       d="m 22.356183,81.569862 c -0.131023,0.0057 -4.828073,-4.299932 -4.833769,-4.430955 -0.0057,-0.131023 4.299931,-4.828072 4.430954,-4.833769 0.131023,-0.0057 4.828073,4.299932 4.83377,4.430955 0.0057,0.131023 -4.299932,4.828072 -4.430955,4.833769 z"
       transform="matrix(1.1782924,0,0,1.583186,48.012997,25.019378)" />
    <path
       sodipodi:type="star"
       style="fill:#800000;stroke:#ff2e3d;stroke-width:0.529167;stroke-dasharray:none;stroke-opacity:1"
       id="path1656-4-9-6-6-2-4-7-4-1-8"
       inkscape:flatsided="true"
       sodipodi:sides="4"
       sodipodi:cx="22.154776"
       sodipodi:cy="76.9375"
       sodipodi:r1="4.6367383"
       sodipodi:r2="3.2786696"
       sodipodi:arg1="1.5273454"
       sodipodi:arg2="2.3127436"
       inkscape:rounded="0.02"
       inkscape:randomized="0"
       d="m 22.356183,81.569862 c -0.131023,0.0057 -4.828073,-4.299932 -4.833769,-4.430955 -0.0057,-0.131023 4.299931,-4.828072 4.430954,-4.833769 0.131023,-0.0057 4.828073,4.299932 4.83377,4.430955 0.0057,0.131023 -4.299932,4.828072 -4.430955,4.833769 z"
       transform="matrix(1.1782924,0,0,1.583186,25.253998,40.930536)" />
    <path
       sodipodi:type="star"
       style="fill:#800000;stroke:#ff2e3d;stroke-width:0.529167;stroke-dasharray:none;stroke-opacity:1"
       id="path1656-4-9-6-6-2-4-7-4-1-8-5"
       inkscape:flatsided="true"
       sodipodi:sides="4"
       sodipodi:cx="22.154776"
       sodipodi:cy="76.9375"
       sodipodi:r1="4.6367383"
       sodipodi:r2="3.2786696"
       sodipodi:arg1="1.5273454"
       sodipodi:arg2="2.3127436"
       inkscape:rounded="0.02"
       inkscape:randomized="0"
       d="m 22.356183,81.569862 c -0.131023,0.0057 -4.828073,-4.299932 -4.833769,-4.430955 -0.0057,-0.131023 4.299931,-4.828072 4.430954,-4.833769 0.131023,-0.0057 4.828073,4.299932 4.83377,4.430955 0.0057,0.131023 -4.299932,4.828072 -4.430955,4.833769 z"
       transform="matrix(1.1782924,0,0,1.583186,36.7342,40.729129)" />
    <path
       sodipodi:type="star"
       style="fill:#800000;stroke:#ff2e3d;stroke-width:0.529167;stroke-dasharray:none;stroke-opacity:1"
       id="path1656-4-9-6-6-2-4-7-4-1-8-5-8"
       inkscape:flatsided="true"
       sodipodi:sides="4"
       sodipodi:cx="22.154776"
       sodipodi:cy="76.9375"
       sodipodi:r1="4.6367383"
       sodipodi:r2="3.2786696"
       sodipodi:arg1="1.5273454"
       sodipodi:arg2="2.3127436"
       inkscape:rounded="0.02"
       inkscape:randomized="0"
       d="m 22.356183,81.569862 c -0.131023,0.0057 -4.828073,-4.299932 -4.833769,-4.430955 -0.0057,-0.131023 4.299931,-4.828072 4.430954,-4.833769 0.131023,-0.0057 4.828073,4.299932 4.83377,4.430955 0.0057,0.131023 -4.299932,4.828072 -4.430955,4.833769 z"
       transform="matrix(1.1782924,0,0,1.583186,49.020032,40.527722)" />
    <path
       sodipodi:type="star"
       style="fill:#800000;stroke:#ff2e3d;stroke-width:0.529167;stroke-dasharray:none;stroke-opacity:1"
       id="path1656-4-9-6-6-2-4-7-4-1-8-5-8-9"
       inkscape:flatsided="true"
       sodipodi:sides="4"
       sodipodi:cx="22.154776"
       sodipodi:cy="76.9375"
       sodipodi:r1="4.6367383"
       sodipodi:r2="3.2786696"
       sodipodi:arg1="1.5273454"
       sodipodi:arg2="2.3127436"
       inkscape:rounded="0.02"
       inkscape:randomized="0"
       d="m 22.356183,81.569862 c -0.131023,0.0057 -4.828073,-4.299932 -4.833769,-4.430955 -0.0057,-0.131023 4.299931,-4.828072 4.430954,-4.833769 0.131023,-0.0057 4.828073,4.299932 4.83377,4.430955 0.0057,0.131023 -4.299932,4.828072 -4.430955,4.833769 z"
       transform="matrix(1.1782924,0,0,1.583186,46.200333,-6.4001241)" />
    <path
       sodipodi:type="star"
       style="fill:#800000;stroke:#ff2e3d;stroke-width:0.529167;stroke-dasharray:none;stroke-opacity:1"
       id="path1656-4-9-6-6-2-4-7-4-1-8-5-8-9-9"
       inkscape:flatsided="true"
       sodipodi:sides="4"
       sodipodi:cx="22.154776"
       sodipodi:cy="76.9375"
       sodipodi:r1="4.6367383"
       sodipodi:r2="3.2786696"
       sodipodi:arg1="1.5273454"
       sodipodi:arg2="2.3127436"
       inkscape:rounded="0.02"
       inkscape:randomized="0"
       d="m 22.356183,81.569862 c -0.131023,0.0057 -4.828073,-4.299932 -4.833769,-4.430955 -0.0057,-0.131023 4.299931,-4.828072 4.430954,-4.833769 0.131023,-0.0057 4.828073,4.299932 4.83377,4.430955 0.0057,0.131023 -4.299932,4.828072 -4.430955,4.833769 z"
       transform="matrix(1.1782924,0,0,1.583186,35.122944,-5.5944965)" />
    <path
       sodipodi:type="star"
       style="fill:#800000;stroke:#ff2e3d;stroke-width:0.529167;stroke-dasharray:none;stroke-opacity:1"
       id="path1656-4-9-6-6-2-4-7-4-1-8-5-8-9-9-9"
       inkscape:flatsided="true"
       sodipodi:sides="4"
       sodipodi:cx="22.154776"
       sodipodi:cy="76.9375"
       sodipodi:r1="4.6367383"
       sodipodi:r2="3.2786696"
       sodipodi:arg1="1.5273454"
       sodipodi:arg2="2.3127436"
       inkscape:rounded="0.02"
       inkscape:randomized="0"
       d="m 22.356183,81.569862 c -0.131023,0.0057 -4.828073,-4.299932 -4.833769,-4.430955 -0.0057,-0.131023 4.299931,-4.828072 4.430954,-4.833769 0.131023,-0.0057 4.828073,4.299932 4.83377,4.430955 0.0057,0.131023 -4.299932,4.828072 -4.430955,4.833769 z"
       transform="matrix(1.1782924,0,0,1.583186,23.642741,-5.3930894)" />
    <path
       sodipodi:type="star"
       style="fill:#800000;stroke:#ff2e3d;stroke-width:0.529167;stroke-dasharray:none;stroke-opacity:1"
       id="path1656-4-9-6-6-2-4-7-4-1-8-5-8-9-9-9-3"
       inkscape:flatsided="true"
       sodipodi:sides="4"
       sodipodi:cx="22.154776"
       sodipodi:cy="76.9375"
       sodipodi:r1="4.6367383"
       sodipodi:r2="3.2786696"
       sodipodi:arg1="1.5273454"
       sodipodi:arg2="2.3127436"
       inkscape:rounded="0.02"
       inkscape:randomized="0"
       d="m 22.356183,81.569862 c -0.131023,0.0057 -4.828073,-4.299932 -4.833769,-4.430955 -0.0057,-0.131023 4.299931,-4.828072 4.430954,-4.833769 0.131023,-0.0057 4.828073,4.299932 4.83377,4.430955 0.0057,0.131023 -4.299932,4.828072 -4.430955,4.833769 z"
       transform="matrix(1.1782924,0,0,1.583186,12.363946,10.518069)" />
    <path
       sodipodi:type="star"
       style="fill:#800000;stroke:#ff2e3d;stroke-width:0.529167;stroke-dasharray:none;stroke-opacity:1"
       id="path1656-4-9-6-6-2-4-7-4-1-8-5-8-9-9-9-3-3"
       inkscape:flatsided="true"
       sodipodi:sides="4"
       sodipodi:cx="22.154776"
       sodipodi:cy="76.9375"
       sodipodi:r1="4.6367383"
       sodipodi:r2="3.2786696"
       sodipodi:arg1="1.5273454"
       sodipodi:arg2="2.3127436"
       inkscape:rounded="0.02"
       inkscape:randomized="0"
       d="m 22.356183,81.569862 c -0.131023,0.0057 -4.828073,-4.299932 -4.833769,-4.430955 -0.0057,-0.131023 4.299931,-4.828072 4.430954,-4.833769 0.131023,-0.0057 4.828073,4.299932 4.83377,4.430955 0.0057,0.131023 -4.299932,4.828072 -4.430955,4.833769 z"
       transform="matrix(1.1782924,0,0,1.583186,11.961132,11.323697)" />
  </g>
</svg>
